<svg xmlns="http://www.w3.org/2000/svg" version="1.1" xmlns:xlink="http://www.w3.org/1999/xlink" xmlns:svgjs="http://svgjs.dev/svgjs" width="1000" height="1000" viewBox="0 0 1000 1000"><g transform="matrix(1,0,0,1,-0.14221556886212738,-0.14221556886229791)"><svg viewBox="0 0 334 334" data-background-color="#ffffff" preserveAspectRatio="xMidYMid meet" height="1000" width="1000" xmlns="http://www.w3.org/2000/svg" xmlns:xlink="http://www.w3.org/1999/xlink"><g id="tight-bounds" transform="matrix(1,0,0,1,0.04749999999998522,0.04750000000001364)"><svg viewBox="0 0 333.90454557049503 333.90454557049503" height="333.90454557049503" width="333.90454557049503"><g><svg></svg></g><g><svg viewBox="0 0 333.90454557049503 333.90454557049503" height="333.90454557049503" width="333.90454557049503"><g><path d="M0 166.952c0-92.205 74.747-166.952 166.952-166.952 92.205 0 166.952 74.747 166.953 166.952 0 92.205-74.747 166.952-166.953 166.953-92.205 0-166.952-74.747-166.952-166.953zM166.952 327.306c88.561 0 160.354-71.793 160.354-160.354 0-88.561-71.793-160.354-160.354-160.354-88.561 0-160.354 71.793-160.354 160.354 0 88.561 71.793 160.354 160.354 160.354z" data-fill-palette-color="tertiary" fill="#6f605b" stroke="transparent"></path><ellipse rx="160.27418187383762" ry="160.27418187383762" cx="166.95227278524752" cy="166.95227278524752" fill="#6f605b" stroke="transparent" stroke-width="0" fill-opacity="1" data-fill-palette-color="tertiary"></ellipse></g><g transform="matrix(1,0,0,1,104.58892062170597,71.17305217166896)"><svg viewBox="0 0 124.72670432708308 191.55844122715712" height="191.55844122715712" width="124.72670432708308"><g><svg viewBox="0 0 124.72670432708308 191.55844122715712" height="191.55844122715712" width="124.72670432708308"><g><svg viewBox="0 0 213.1584412271571 327.37414939471387" height="191.55844122715712" width="124.72670432708308"><g transform="matrix(1,0,0,1,0,202.33035792543876)"><svg viewBox="0 0 213.1584412271571 125.04379146927508" height="125.04379146927508" width="213.1584412271571"><g id="textblocktransform"><svg viewBox="0 0 213.1584412271571 125.04379146927508" height="125.04379146927508" width="213.1584412271571" id="textblock"><g><svg viewBox="0 0 213.1584412271571 125.04379146927508" height="125.04379146927508" width="213.1584412271571"><g transform="matrix(1,0,0,1,0,0)"><svg width="213.1584412271571" viewBox="1.7300000190734863 -35.54999923706055 60.60000228881836 35.54999923706055" height="125.04379146927508" data-palette-color="#ffffff"><path d="M15.36 0L1.73 0 1.73-1.32 5.71-1.32 5.71-34.23 1.73-34.23 1.73-35.55 5.71-35.55 15.36-35.55Q19.73-35.55 23.13-33.29 26.54-31.03 28.5-27.08 30.47-23.12 30.47-17.99L30.47-17.99 30.47-17.55Q30.47-12.43 28.5-8.47 26.54-4.52 23.13-2.26 19.73 0 15.36 0L15.36 0ZM7.03-34.23L7.03-1.32 15.36-1.32Q19.34-1.32 22.45-3.43 25.56-5.54 27.36-9.22 29.15-12.89 29.15-17.55L29.15-17.55 29.15-18.07Q29.15-22.71 27.36-26.35 25.56-30 22.45-32.12 19.34-34.23 15.36-34.23L15.36-34.23 7.03-34.23ZM53.37 0L44.09 0 44.09-1.32 48.07-1.32 48.07-34.23 36.45-34.23 36.45-28.39 35.13-28.39 35.13-35.55 62.33-35.55 62.33-28.39 61.01-28.39 61.01-34.23 49.39-34.23 49.39-1.32 53.37-1.32 53.37 0Z" opacity="1" transform="matrix(1,0,0,1,0,0)" fill="#ffffff" class="wordmark-text-0" data-fill-palette-color="quaternary" id="text-0"></path></svg></g></svg></g></svg></g></svg></g><g transform="matrix(1,0,0,1,43.57844437688988,0)"><svg viewBox="0 0 126.00155247337736 172.81051981053818" height="172.81051981053818" width="126.00155247337736"><g><svg xmlns="http://www.w3.org/2000/svg" xmlns:xlink="http://www.w3.org/1999/xlink" version="1.1" x="0" y="0" viewBox="14.661893844604492 2.2618918418884277 69.51399230957031 95.33810424804688" style="enable-background:new 0 0 100 100;" xml:space="preserve" height="172.81051981053818" width="126.00155247337736" class="icon-icon-0" data-fill-palette-color="quaternary" id="icon-0"><path d="M82.6 38L82.6 38c-1.1-1.4-2.7-2.2-4.5-2.3-1.8-0.2-3.5 0.4-4.8 1.5-1.4 1.1-2.2 2.7-2.3 4.5s0.4 3.5 1.5 4.8c1 1.1 2.2 1.9 3.6 2.2v9.7L51 89.2V60.1l14-17.2V32c1-0.2 1.9-0.7 2.8-1.4 1.4-1.1 2.2-2.7 2.3-4.5 0.2-1.8-0.4-3.5-1.5-4.8-1.1-1.4-2.7-2.2-4.5-2.3-1.8-0.2-3.5 0.4-4.8 1.5-1.4 1.1-2.2 2.7-2.3 4.5-0.2 1.8 0.4 3.5 1.5 4.8 1 1.1 2.2 1.9 3.6 2.2v9.7L51 55.3v-40c1-0.2 1.9-0.7 2.8-1.4 1.4-1.1 2.2-2.7 2.3-4.5 0.2-1.8-0.4-3.5-1.5-4.8-1.1-1.4-2.7-2.2-4.5-2.3-1.8-0.2-3.5 0.4-4.8 1.5-1.4 1.1-2.2 2.7-2.3 4.5-0.2 1.8 0.4 3.5 1.5 4.8 1 1.1 2.2 1.9 3.6 2.2v32.3L36.7 37v-8c1.4-0.3 2.6-1 3.6-2.2 2.3-2.8 2-7-0.8-9.3-1.4-1.1-3.1-1.7-4.8-1.5-1.8 0.2-3.4 1-4.5 2.3-2.3 2.8-2 7 0.8 9.3 0.8 0.7 1.8 1.1 2.8 1.4v9.3L48 51.8v29.5L22.7 53.7v-9.7c1.4-0.3 2.6-1 3.6-2.2 2.3-2.8 2-7-0.8-9.3-1.4-1.1-3.1-1.7-4.8-1.5-1.8 0.2-3.4 1-4.5 2.3s-1.7 3.1-1.5 4.8c0.2 1.8 1 3.4 2.3 4.5 0.8 0.7 1.8 1.1 2.8 1.4v10.8L48 85.7v11.9h3V94l28-34.5V48.7c1-0.2 1.9-0.7 2.8-1.4C84.6 45 85 40.8 82.6 38z" fill="#ffffff" data-fill-palette-color="quaternary"></path></svg></g></svg></g><g></g></svg></g></svg></g></svg></g></svg></g><defs></defs></svg><rect width="333.90454557049503" height="333.90454557049503" fill="none" stroke="none" visibility="hidden"></rect></g></svg></g></svg>