<svg xmlns="http://www.w3.org/2000/svg" version="1.1" xmlns:xlink="http://www.w3.org/1999/xlink" xmlns:svgjs="http://svgjs.dev/svgjs" width="1000" height="1000" viewBox="0 0 1000 1000"><rect width="1000" height="1000" fill="#000000"></rect><g transform="matrix(0.7,0,0,0.7,149.57575757575756,440.9009912034487)"><svg viewBox="0 0 396 67" data-background-color="#ffffff" preserveAspectRatio="xMidYMid meet" height="169" width="1000" xmlns="http://www.w3.org/2000/svg" xmlns:xlink="http://www.w3.org/1999/xlink"><g id="tight-bounds" transform="matrix(1,0,0,1,0.2400000000000091,-0.02887921074437827)"><svg viewBox="0 0 395.52 67.05775842148876" height="67.05775842148876" width="395.52"><g><svg viewBox="0 0 463.47554528547914 78.57916451765128" height="67.05775842148876" width="395.52"><g transform="matrix(1,0,0,1,67.95554528547919,1.383569466905108)"><svg viewBox="0 0 395.52 75.81202558384106" height="75.81202558384106" width="395.52"><g id="textblocktransform"><svg viewBox="0 0 395.52 75.81202558384106" height="75.81202558384106" width="395.52" id="textblock"><g><svg viewBox="0 0 395.52 45.1592768791627" height="45.1592768791627" width="395.52"><g transform="matrix(1,0,0,1,0,0)"><svg width="395.52" viewBox="5 -35.5 315.28 36" height="45.1592768791627" data-palette-color="#111111"><path d="M6-35L19-35Q22.75-35 25.5-33.58 28.25-32.15 30.03-29.68 31.8-27.2 32.65-24.05 33.5-20.9 33.5-17.5L33.5-17.5Q33.5-12.7 31.98-8.72 30.45-4.75 27.25-2.38 24.05 0 19 0L19 0 6 0Q5.6 0 5.3-0.3 5-0.6 5-1L5-1 5-34Q5-34.4 5.3-34.7 5.6-35 6-35L6-35ZM6.8-2L18.5-2Q23.1-2 25.93-4.08 28.75-6.15 30.08-9.68 31.4-13.2 31.4-17.5L31.4-17.5Q31.4-20.55 30.68-23.35 29.95-26.15 28.4-28.33 26.85-30.5 24.4-31.75 21.95-33 18.5-33L18.5-33 6.8-33 7.1-33.4 7.1-1.55 6.8-2ZM51.35-32.85L52.1-32.45 39.45-0.65Q39.35-0.35 39.1-0.18 38.85 0 38.55 0L38.55 0Q38.05 0 37.8-0.25 37.55-0.5 37.5-0.85L37.5-0.85Q37.45-1.05 37.55-1.35L37.55-1.35 51-34.45Q51.15-34.85 51.37-34.98 51.6-35.1 51.95-35.1L51.95-35.1Q52.35-35.1 52.6-34.93 52.85-34.75 52.95-34.45L52.95-34.45 66.4-1.35Q66.45-1.2 66.45-0.95L66.45-0.95Q66.45-0.5 66.15-0.25 65.85 0 65.4 0L65.4 0Q65.05 0 64.77-0.18 64.5-0.35 64.4-0.65L64.4-0.65 51.35-32.85ZM60.25-10.85L42.85-10.85 43.55-12.85 59.75-12.85 60.25-10.85ZM98.5-35L98.5-35Q98.95-35 99.2-34.73 99.45-34.45 99.45-34.05L99.45-34.05 99.45-1.1Q99.45-0.55 99.12-0.28 98.8 0 98.4 0L98.4 0Q98.2 0 97.97-0.1 97.75-0.2 97.6-0.4L97.6-0.4 74.4-32.1 75.1-32.45 75.1-0.85Q75.1-0.5 74.82-0.25 74.55 0 74.15 0L74.15 0Q73.7 0 73.45-0.25 73.2-0.5 73.2-0.85L73.2-0.85 73.2-34Q73.2-34.55 73.5-34.77 73.8-35 74.1-35L74.1-35Q74.3-35 74.5-34.93 74.7-34.85 74.85-34.65L74.85-34.65 97.95-3.15 97.55-2.15 97.55-34.05Q97.55-34.45 97.85-34.73 98.15-35 98.5-35ZM111.54-33.95L111.54-1.05Q111.49-0.6 111.19-0.3 110.89 0 110.49 0L110.49 0Q109.99 0 109.72-0.3 109.44-0.6 109.44-1.05L109.44-1.05 109.44-33.95Q109.44-34.4 109.74-34.7 110.04-35 110.49-35L110.49-35Q110.94-35 111.24-34.7 111.54-34.4 111.54-33.95L111.54-33.95ZM122.54-35L122.54-35 141.39-35Q141.79-35 142.09-34.7 142.39-34.4 142.39-34L142.39-34Q142.39-33.55 142.09-33.27 141.79-33 141.39-33L141.39-33 123.14-33 123.64-33.85 123.64-18.35 123.04-19.05 139.14-19.05Q139.54-19.05 139.84-18.75 140.14-18.45 140.14-18.05L140.14-18.05Q140.14-17.6 139.84-17.32 139.54-17.05 139.14-17.05L139.14-17.05 123.14-17.05 123.64-17.6 123.64-1.75 123.44-2 141.39-2Q141.79-2 142.09-1.7 142.39-1.4 142.39-1L142.39-1Q142.39-0.55 142.09-0.28 141.79 0 141.39 0L141.39 0 122.54 0Q122.14 0 121.84-0.3 121.54-0.6 121.54-1L121.54-1 121.54-34Q121.54-34.4 121.84-34.7 122.14-35 122.54-35ZM151.09-2L169.24-2Q169.64-2 169.94-1.7 170.24-1.4 170.24-1L170.24-1Q170.24-0.55 169.94-0.28 169.64 0 169.24 0L169.24 0 150.89 0Q150.44 0 150.16-0.3 149.89-0.6 149.89-1L149.89-1 149.89-34Q149.89-34.4 150.19-34.7 150.49-35 150.94-35L150.94-35Q151.39-35 151.69-34.7 151.99-34.4 151.99-34L151.99-34 151.99-1.1 151.09-2ZM199.38 0L199.38 0Q198.93 0 198.66-0.3 198.38-0.6 198.38-1L198.38-1 198.38-33.8 200.38-33.8 200.38-1Q200.38-0.6 200.08-0.3 199.78 0 199.38 0ZM211.53-33.1L187.23-33.1Q186.83-33.1 186.53-33.38 186.23-33.65 186.23-34.05L186.23-34.05Q186.23-34.45 186.53-34.73 186.83-35 187.23-35L187.23-35 211.53-35Q211.93-35 212.23-34.73 212.53-34.45 212.53-34.05L212.53-34.05Q212.53-33.6 212.23-33.35 211.93-33.1 211.53-33.1L211.53-33.1ZM249.18-17.5L249.18-17.5Q249.18-13.5 247.96-10.2 246.73-6.9 244.48-4.5 242.23-2.1 239.18-0.8 236.13 0.5 232.48 0.5L232.48 0.5Q228.83 0.5 225.78-0.8 222.73-2.1 220.48-4.5 218.23-6.9 217.01-10.2 215.78-13.5 215.78-17.5L215.78-17.5Q215.78-21.5 217.01-24.8 218.23-28.1 220.48-30.5 222.73-32.9 225.78-34.2 228.83-35.5 232.48-35.5L232.48-35.5Q236.13-35.5 239.18-34.2 242.23-32.9 244.48-30.5 246.73-28.1 247.96-24.8 249.18-21.5 249.18-17.5ZM247.08-17.5L247.08-17.5Q247.08-22.3 245.21-25.9 243.33-29.5 240.06-31.5 236.78-33.5 232.48-33.5L232.48-33.5Q228.23-33.5 224.93-31.5 221.63-29.5 219.76-25.9 217.88-22.3 217.88-17.5L217.88-17.5Q217.88-12.7 219.76-9.1 221.63-5.5 224.93-3.5 228.23-1.5 232.48-1.5L232.48-1.5Q236.78-1.5 240.06-3.5 243.33-5.5 245.21-9.1 247.08-12.7 247.08-17.5ZM257.73 0L257.73 0Q257.23 0 256.95-0.3 256.68-0.6 256.68-1L256.68-1 256.68-34Q256.68-34.4 256.98-34.7 257.28-35 257.68-35L257.68-35 270.88-35Q273.83-35 276.05-33.83 278.28-32.65 279.53-30.6 280.78-28.55 280.78-25.95L280.78-25.95Q280.78-23.65 279.95-21.8 279.13-19.95 277.65-18.73 276.18-17.5 274.28-16.95L274.28-16.95 271.98-17.35Q273.98-17.35 275.78-16.32 277.58-15.3 278.73-13.33 279.88-11.35 279.88-8.5L279.88-8.5Q279.88-6.05 280.1-4.78 280.33-3.5 280.7-2.9 281.08-2.3 281.58-1.95L281.58-1.95Q281.88-1.75 282.03-1.45 282.18-1.15 282.08-0.75L282.08-0.75Q281.98-0.45 281.75-0.28 281.53-0.1 281.28-0.05 281.03 0 280.73-0.15L280.73-0.15Q280.03-0.55 279.35-1.35 278.68-2.15 278.23-3.8 277.78-5.45 277.78-8.5L277.78-8.5Q277.78-10.85 277.05-12.25 276.33-13.65 275.2-14.4 274.08-15.15 272.8-15.4 271.53-15.65 270.48-15.65L270.48-15.65 258.33-15.65 258.78-16.25 258.78-1Q258.78-0.6 258.48-0.3 258.18 0 257.73 0ZM258.78-17.1L258.28-17.65 271.13-17.65Q273.13-17.85 274.83-18.85 276.53-19.85 277.6-21.65 278.68-23.45 278.68-25.9L278.68-25.9Q278.68-28.95 276.5-30.98 274.33-33 270.63-33L270.63-33 258.53-33 258.78-33.35 258.78-17.1ZM320.28-17.5L320.28-17.5Q320.28-13.5 319.05-10.2 317.83-6.9 315.58-4.5 313.33-2.1 310.28-0.8 307.23 0.5 303.58 0.5L303.58 0.5Q299.93 0.5 296.88-0.8 293.83-2.1 291.58-4.5 289.33-6.9 288.1-10.2 286.88-13.5 286.88-17.5L286.88-17.5Q286.88-21.5 288.1-24.8 289.33-28.1 291.58-30.5 293.83-32.9 296.88-34.2 299.93-35.5 303.58-35.5L303.58-35.5Q307.23-35.5 310.28-34.2 313.33-32.9 315.58-30.5 317.83-28.1 319.05-24.8 320.28-21.5 320.28-17.5ZM318.18-17.5L318.18-17.5Q318.18-22.3 316.3-25.9 314.43-29.5 311.15-31.5 307.88-33.5 303.58-33.5L303.58-33.5Q299.33-33.5 296.03-31.5 292.73-29.5 290.85-25.9 288.98-22.3 288.98-17.5L288.98-17.5Q288.98-12.7 290.85-9.1 292.73-5.5 296.03-3.5 299.33-1.5 303.58-1.5L303.58-1.5Q307.88-1.5 311.15-3.5 314.43-5.5 316.3-9.1 318.18-12.7 318.18-17.5Z" opacity="1" transform="matrix(1,0,0,1,0,0)" fill="#ffffff" class="wordmark-text-0" data-fill-palette-color="primary" id="text-0"></path></svg></g></svg></g><g transform="matrix(1,0,0,1,0,55.82029832768791)"><svg viewBox="0 0 232.209792 19.991727256153144" height="19.991727256153144" width="232.209792"><g transform="matrix(1,0,0,1,0,0)"><svg width="232.209792" viewBox="4.54 -32.4 482.03999999999996 41.51" height="19.991727256153144" data-palette-color="#111111"><path d="M22.75-22.75L22.75-19.9 13.06-19.9 13.06-2.86 18.19-2.86 18.19 0 4.54 0 4.54-2.86 9.69-2.86 9.69-19.9 4.54-19.9 4.54-22.75 9.69-22.75Q9.69-27.44 12.12-29.92 14.55-32.4 19.46-32.4L19.46-32.4Q20.61-32.4 21.4-32.32 22.19-32.25 22.75-32.15L22.75-32.15 22.75-29.3Q22.05-29.39 21.28-29.47 20.51-29.54 19.46-29.54L19.46-29.54Q16.26-29.54 14.66-27.92 13.06-26.29 13.06-22.75L13.06-22.75 22.75-22.75ZM49.9-22.29L48.8-19.56Q46.99-20.46 44.5-20.46L44.5-20.46Q42.45-20.46 40.84-19.58 39.23-18.7 38.11-17.27 36.98-15.84 36.39-14 35.79-12.16 35.79-10.21L35.79-10.21 35.79-2.86 40.94-2.86 40.94 0 27.29 0 27.29-2.86 32.44-2.86 32.44-19.9 27.29-19.9 27.29-22.75 35.79-22.75 35.79-17.04Q38.08-23.29 44.5-23.29L44.5-23.29Q46.24-23.29 47.52-23.07 48.8-22.85 49.9-22.29L49.9-22.29ZM77.92-11.3L77.92-11.3Q77.92-8.64 77.08-6.47 76.24-4.3 74.67-2.75 73.09-1.2 70.89-0.32 68.7 0.56 65.99 0.56L65.99 0.56Q63.33 0.56 61.13-0.32 58.93-1.2 57.36-2.75 55.78-4.3 54.94-6.47 54.1-8.64 54.1-11.3L54.1-11.3Q54.1-13.89 54.94-16.13 55.78-18.36 57.36-19.93 58.93-21.51 61.13-22.4 63.33-23.29 65.99-23.29L65.99-23.29Q68.7-23.29 70.89-22.4 73.09-21.51 74.67-19.93 76.24-18.36 77.08-16.13 77.92-13.89 77.92-11.3ZM74.58-11.3L74.58-11.3Q74.58-13.26 74.01-14.9 73.43-16.55 72.31-17.8 71.19-19.04 69.59-19.75 67.99-20.46 65.99-20.46L65.99-20.46Q63.98-20.46 62.39-19.75 60.79-19.04 59.69-17.8 58.59-16.55 58.02-14.9 57.44-13.26 57.44-11.3L57.44-11.3Q57.44-9.35 58.02-7.7 58.59-6.05 59.69-4.86 60.79-3.66 62.39-2.98 63.98-2.29 65.99-2.29L65.99-2.29Q67.99-2.29 69.59-2.98 71.19-3.66 72.31-4.86 73.43-6.05 74.01-7.7 74.58-9.35 74.58-11.3ZM103.43-14.04L103.43 0 100.07 0 100.07-14.04Q100.07-17.09 98.75-18.77 97.43-20.46 94.47-20.46L94.47-20.46Q92.62-20.46 91.12-19.6 89.62-18.75 88.57-17.32 87.52-15.89 86.97-14.05 86.42-12.21 86.42-10.21L86.42-10.21 86.42 0 83.07 0 83.07-22.75 86.42-22.75 86.42-17.04Q88.84-23.29 95.04-23.29L95.04-23.29Q103.43-23.29 103.43-14.04L103.43-14.04ZM129.36-7.86L132.17-7.25Q131.78-3.66 129.35-1.55 126.92 0.56 123.28 0.56L123.28 0.56Q121.28 0.56 119.62-0.1 117.96-0.76 116.79-1.93 115.62-3.1 114.97-4.75 114.32-6.4 114.32-8.35L114.32-8.35 114.32-19.9 109.17-19.9 109.17-22.75 114.32-22.75 114.32-31.86 117.67-31.86 117.67-22.75 127.36-22.75 127.36-19.9 117.67-19.9 117.67-8.35Q117.67-7.1 118.07-6.01 118.47-4.91 119.19-4.08 119.91-3.25 120.94-2.77 121.96-2.29 123.28-2.29L123.28-2.29Q125.77-2.29 127.44-3.85 129.12-5.4 129.36-7.86L129.36-7.86ZM159.46-10.21L139.81-10.21Q140.17-6.59 142.44-4.44 144.71-2.29 148.35-2.29L148.35-2.29Q150.92-2.29 152.92-3.34 154.92-4.39 155.92-5.96L155.92-5.96 158.26-4.35Q156.55-1.95 154.19-0.7 151.82 0.56 148.35 0.56L148.35 0.56Q145.72 0.56 143.52-0.32 141.32-1.2 139.72-2.77 138.12-4.35 137.24-6.52 136.36-8.69 136.36-11.35L136.36-11.35Q136.36-13.94 137.16-16.13 137.95-18.31 139.45-19.91 140.95-21.51 143.1-22.4 145.25-23.29 147.91-23.29L147.91-23.29Q150.82-23.29 152.99-22.31 155.16-21.34 156.62-19.62 158.07-17.9 158.76-15.5 159.46-13.11 159.46-10.21L159.46-10.21ZM139.86-13.06L155.92-13.06Q155.36-16.8 153.21-18.63 151.06-20.46 147.91-20.46L147.91-20.46Q146.3-20.46 144.93-19.93 143.57-19.41 142.52-18.43 141.47-17.46 140.76-16.08 140.05-14.7 139.86-13.06L139.86-13.06ZM185.31-14.04L185.31 0 181.94 0 181.94-14.04Q181.94-17.09 180.62-18.77 179.31-20.46 176.35-20.46L176.35-20.46Q174.5-20.46 173-19.6 171.49-18.75 170.44-17.32 169.39-15.89 168.84-14.05 168.3-12.21 168.3-10.21L168.3-10.21 168.3 0 164.95 0 164.95-22.75 168.3-22.75 168.3-17.04Q170.71-23.29 176.91-23.29L176.91-23.29Q185.31-23.29 185.31-14.04L185.31-14.04ZM212.6-31.86L212.6 0 209.24 0 209.24-2.1Q207.8-0.81 206.07-0.12 204.35 0.56 202.55 0.56L202.55 0.56Q199.84 0.56 197.69-0.32 195.54-1.2 194.06-2.77 192.59-4.35 191.79-6.54 191-8.74 191-11.35L191-11.35Q191-13.94 191.79-16.15 192.59-18.36 194.06-19.93 195.54-21.51 197.69-22.4 199.84-23.29 202.55-23.29L202.55-23.29Q204.35-23.29 206.07-22.64 207.8-22 209.24-20.7L209.24-20.7 209.24-29 204.69-29 204.69-31.86 212.6-31.86ZM209.24-5.3L209.24-17.46Q207.8-19.04 206.1-19.75 204.4-20.46 202.5-20.46L202.5-20.46Q200.5-20.46 198.97-19.75 197.44-19.04 196.42-17.82 195.39-16.6 194.87-14.95 194.34-13.31 194.34-11.35L194.34-11.35Q194.34-9.4 194.87-7.75 195.39-6.1 196.42-4.88 197.44-3.66 198.97-2.95 200.5-2.25 202.5-2.25L202.5-2.25Q206.35-2.25 209.24-5.3L209.24-5.3ZM267.19-31.86L267.19 0 263.82 0 263.82-2.1Q262.38-0.81 260.66-0.12 258.94 0.56 257.13 0.56L257.13 0.56Q254.42 0.56 252.27-0.32 250.12-1.2 248.65-2.77 247.17-4.35 246.38-6.54 245.58-8.74 245.58-11.35L245.58-11.35Q245.58-13.94 246.38-16.15 247.17-18.36 248.65-19.93 250.12-21.51 252.27-22.4 254.42-23.29 257.13-23.29L257.13-23.29Q258.94-23.29 260.66-22.64 262.38-22 263.82-20.7L263.82-20.7 263.82-29 259.28-29 259.28-31.86 267.19-31.86ZM263.82-5.3L263.82-17.46Q262.38-19.04 260.68-19.75 258.99-20.46 257.08-20.46L257.08-20.46Q255.08-20.46 253.55-19.75 252.03-19.04 251-17.82 249.98-16.6 249.45-14.95 248.93-13.31 248.93-11.35L248.93-11.35Q248.93-9.4 249.45-7.75 249.98-6.1 251-4.88 252.03-3.66 253.55-2.95 255.08-2.25 257.08-2.25L257.08-2.25Q260.94-2.25 263.82-5.3L263.82-5.3ZM295.92-10.21L276.27-10.21Q276.64-6.59 278.91-4.44 281.18-2.29 284.81-2.29L284.81-2.29Q287.38-2.29 289.38-3.34 291.38-4.39 292.38-5.96L292.38-5.96 294.73-4.35Q293.02-1.95 290.65-0.7 288.28 0.56 284.81 0.56L284.81 0.56Q282.18 0.56 279.98-0.32 277.78-1.2 276.18-2.77 274.58-4.35 273.71-6.52 272.83-8.69 272.83-11.35L272.83-11.35Q272.83-13.94 273.62-16.13 274.41-18.31 275.91-19.91 277.42-21.51 279.56-22.4 281.71-23.29 284.37-23.29L284.37-23.29Q287.28-23.29 289.45-22.31 291.63-21.34 293.08-19.62 294.53-17.9 295.23-15.5 295.92-13.11 295.92-10.21L295.92-10.21ZM276.32-13.06L292.38-13.06Q291.82-16.8 289.67-18.63 287.52-20.46 284.37-20.46L284.37-20.46Q282.76-20.46 281.4-19.93 280.03-19.41 278.98-18.43 277.93-17.46 277.22-16.08 276.51-14.7 276.32-13.06L276.32-13.06ZM319.72-22.75L323.73-22.75 313.86 0 309.37 0 299.46-22.75 303.46-22.75 311.62-2.81 319.72-22.75ZM350.51-10.21L330.85-10.21Q331.22-6.59 333.49-4.44 335.76-2.29 339.4-2.29L339.4-2.29Q341.96-2.29 343.96-3.34 345.97-4.39 346.97-5.96L346.97-5.96 349.31-4.35Q347.6-1.95 345.23-0.7 342.87 0.56 339.4 0.56L339.4 0.56Q336.76 0.56 334.56-0.32 332.37-1.2 330.77-2.77 329.17-4.35 328.29-6.52 327.41-8.69 327.41-11.35L327.41-11.35Q327.41-13.94 328.2-16.13 329-18.31 330.5-19.91 332-21.51 334.15-22.4 336.3-23.29 338.96-23.29L338.96-23.29Q341.86-23.29 344.04-22.31 346.21-21.34 347.66-19.62 349.12-17.9 349.81-15.5 350.51-13.11 350.51-10.21L350.51-10.21ZM330.9-13.06L346.97-13.06Q346.41-16.8 344.26-18.63 342.11-20.46 338.96-20.46L338.96-20.46Q337.35-20.46 335.98-19.93 334.61-19.41 333.56-18.43 332.51-17.46 331.81-16.08 331.1-14.7 330.9-13.06L330.9-13.06ZM372.99-2.86L372.99 0 359.34 0 359.34-2.86 364.49-2.86 364.49-29 359.34-29 359.34-31.86 367.86-31.86 367.86-2.86 372.99-2.86ZM405.43-11.3L405.43-11.3Q405.43-8.64 404.59-6.47 403.75-4.3 402.17-2.75 400.6-1.2 398.4-0.32 396.21 0.56 393.5 0.56L393.5 0.56Q390.83 0.56 388.64-0.32 386.44-1.2 384.86-2.75 383.29-4.3 382.45-6.47 381.61-8.64 381.61-11.3L381.61-11.3Q381.61-13.89 382.45-16.13 383.29-18.36 384.86-19.93 386.44-21.51 388.64-22.4 390.83-23.29 393.5-23.29L393.5-23.29Q396.21-23.29 398.4-22.4 400.6-21.51 402.17-19.93 403.75-18.36 404.59-16.13 405.43-13.89 405.43-11.3ZM402.09-11.3L402.09-11.3Q402.09-13.26 401.52-14.9 400.94-16.55 399.82-17.8 398.7-19.04 397.1-19.75 395.5-20.46 393.5-20.46L393.5-20.46Q391.49-20.46 389.89-19.75 388.3-19.04 387.2-17.8 386.1-16.55 385.52-14.9 384.95-13.26 384.95-11.3L384.95-11.3Q384.95-9.35 385.52-7.7 386.1-6.05 387.2-4.86 388.3-3.66 389.89-2.98 391.49-2.29 393.5-2.29L393.5-2.29Q395.5-2.29 397.1-2.98 398.7-3.66 399.82-4.86 400.94-6.05 401.52-7.7 402.09-9.35 402.09-11.3ZM432.14-11.35L432.14-11.35Q432.14-8.69 431.31-6.52 430.48-4.35 428.98-2.77 427.48-1.2 425.35-0.32 423.23 0.56 420.59 0.56L420.59 0.56Q418.79 0.56 417.09-0.1 415.39-0.76 413.93-2.05L413.93-2.05 413.93 9.11 410.58 9.11 410.58-22.75 413.93-22.75 413.93-20.65Q417.03-23.29 420.59-23.29L420.59-23.29Q423.23-23.29 425.35-22.42 427.48-21.56 428.98-19.96 430.48-18.36 431.31-16.15 432.14-13.94 432.14-11.35ZM428.8-11.35L428.8-11.35Q428.8-13.26 428.27-14.93 427.75-16.6 426.7-17.82 425.65-19.04 424.12-19.75 422.59-20.46 420.59-20.46L420.59-20.46Q418.69-20.46 417.04-19.75 415.39-19.04 413.93-17.46L413.93-17.46 413.93-5.25Q415.39-3.66 417.04-2.98 418.69-2.29 420.59-2.29L420.59-2.29Q422.59-2.29 424.12-3 425.65-3.71 426.7-4.93 427.75-6.15 428.27-7.8 428.8-9.45 428.8-11.35ZM459.68-10.21L440.02-10.21Q440.39-6.59 442.66-4.44 444.93-2.29 448.57-2.29L448.57-2.29Q451.13-2.29 453.13-3.34 455.14-4.39 456.14-5.96L456.14-5.96 458.48-4.35Q456.77-1.95 454.4-0.7 452.04 0.56 448.57 0.56L448.57 0.56Q445.93 0.56 443.73-0.32 441.54-1.2 439.94-2.77 438.34-4.35 437.46-6.52 436.58-8.69 436.58-11.35L436.58-11.35Q436.58-13.94 437.37-16.13 438.17-18.31 439.67-19.91 441.17-21.51 443.32-22.4 445.47-23.29 448.13-23.29L448.13-23.29Q451.03-23.29 453.21-22.31 455.38-21.34 456.83-19.62 458.29-17.9 458.98-15.5 459.68-13.11 459.68-10.21L459.68-10.21ZM440.07-13.06L456.14-13.06Q455.58-16.8 453.43-18.63 451.28-20.46 448.13-20.46L448.13-20.46Q446.52-20.46 445.15-19.93 443.78-19.41 442.73-18.43 441.68-17.46 440.98-16.08 440.27-14.7 440.07-13.06L440.07-13.06ZM486.58-22.29L485.48-19.56Q483.67-20.46 481.18-20.46L481.18-20.46Q479.13-20.46 477.52-19.58 475.91-18.7 474.79-17.27 473.66-15.84 473.07-14 472.47-12.16 472.47-10.21L472.47-10.21 472.47-2.86 477.62-2.86 477.62 0 463.97 0 463.97-2.86 469.12-2.86 469.12-19.9 463.97-19.9 463.97-22.75 472.47-22.75 472.47-17.04Q474.76-23.29 481.18-23.29L481.18-23.29Q482.92-23.29 484.2-23.07 485.48-22.85 486.58-22.29L486.58-22.29Z" opacity="1" transform="matrix(1,0,0,1,0,0)" fill="#ffffff" class="slogan-text-1" data-fill-palette-color="secondary" id="text-1"></path></svg></g></svg></g></svg></g></svg></g><g><svg viewBox="0 0 57.29452383695397 78.57916451765128" height="78.57916451765128" width="57.29452383695397"><g><svg xmlns="http://www.w3.org/2000/svg" xmlns:xlink="http://www.w3.org/1999/xlink" version="1.1" x="0" y="0" viewBox="14.661892441330963 2.2618924413309593 69.51399279465787 95.33810755866905" style="enable-background:new 0 0 100 100;" xml:space="preserve" height="78.57916451765128" width="57.29452383695397" class="icon-icon-0" data-fill-palette-color="accent" id="icon-0"><path d="M82.6 38L82.6 38c-1.1-1.4-2.7-2.2-4.5-2.3-1.8-0.2-3.5 0.4-4.8 1.5-1.4 1.1-2.2 2.7-2.3 4.5s0.4 3.5 1.5 4.8c1 1.1 2.2 1.9 3.6 2.2v9.7L51 89.2V60.1l14-17.2V32c1-0.2 1.9-0.7 2.8-1.4 1.4-1.1 2.2-2.7 2.3-4.5 0.2-1.8-0.4-3.5-1.5-4.8-1.1-1.4-2.7-2.2-4.5-2.3-1.8-0.2-3.5 0.4-4.8 1.5-1.4 1.1-2.2 2.7-2.3 4.5-0.2 1.8 0.4 3.5 1.5 4.8 1 1.1 2.2 1.9 3.6 2.2v9.7L51 55.3v-40c1-0.2 1.9-0.7 2.8-1.4 1.4-1.1 2.2-2.7 2.3-4.5 0.2-1.8-0.4-3.5-1.5-4.8-1.1-1.4-2.7-2.2-4.5-2.3-1.8-0.2-3.5 0.4-4.8 1.5-1.4 1.1-2.2 2.7-2.3 4.5-0.2 1.8 0.4 3.5 1.5 4.8 1 1.1 2.2 1.9 3.6 2.2v32.3L36.7 37v-8c1.4-0.3 2.6-1 3.6-2.2 2.3-2.8 2-7-0.8-9.3-1.4-1.1-3.1-1.7-4.8-1.5-1.8 0.2-3.4 1-4.5 2.3-2.3 2.8-2 7 0.8 9.3 0.8 0.7 1.8 1.1 2.8 1.4v9.3L48 51.8v29.5L22.7 53.7v-9.7c1.4-0.3 2.6-1 3.6-2.2 2.3-2.8 2-7-0.8-9.3-1.4-1.1-3.1-1.7-4.8-1.5-1.8 0.2-3.4 1-4.5 2.3s-1.7 3.1-1.5 4.8c0.2 1.8 1 3.4 2.3 4.5 0.8 0.7 1.8 1.1 2.8 1.4v10.8L48 85.7v11.9h3V94l28-34.5V48.7c1-0.2 1.9-0.7 2.8-1.4C84.6 45 85 40.8 82.6 38z" fill="#ffffff" data-fill-palette-color="accent"></path></svg></g></svg></g></svg></g><defs></defs></svg><rect width="395.52" height="67.05775842148876" fill="none" stroke="none" visibility="hidden"></rect></g></svg></g></svg>